<mxfile host="65bd71144e">
    <diagram id="buh0RhdPcYZlJgeNuZut" name="Page-1">
        <mxGraphModel dx="807" dy="430" grid="1" gridSize="10" guides="1" tooltips="1" connect="1" arrows="1" fold="1" page="1" pageScale="1" pageWidth="850" pageHeight="1100" math="0" shadow="0">
            <root>
                <mxCell id="0"/>
                <mxCell id="1" parent="0"/>
                <mxCell id="3" value="" style="endArrow=none;html=1;fillColor=#f5f5f5;strokeColor=#994C00;rounded=1;" edge="1" parent="1">
                    <mxGeometry width="50" height="50" relative="1" as="geometry">
                        <mxPoint x="440" y="110" as="sourcePoint"/>
                        <mxPoint x="440" as="targetPoint"/>
                    </mxGeometry>
                </mxCell>
                <mxCell id="5" value="" style="endArrow=none;html=1;fillColor=#f5f5f5;strokeColor=#994C00;rounded=1;" edge="1" parent="1">
                    <mxGeometry width="50" height="50" relative="1" as="geometry">
                        <mxPoint x="520" y="40" as="sourcePoint"/>
                        <mxPoint x="400" y="40" as="targetPoint"/>
                    </mxGeometry>
                </mxCell>
                <mxCell id="55" value="" style="endArrow=none;html=1;fillColor=#f5f5f5;strokeColor=#994C00;rounded=1;" edge="1" parent="1">
                    <mxGeometry width="50" height="50" relative="1" as="geometry">
                        <mxPoint x="479.9999999999998" y="110" as="sourcePoint"/>
                        <mxPoint x="479.9999999999998" as="targetPoint"/>
                    </mxGeometry>
                </mxCell>
                <mxCell id="57" value="" style="endArrow=none;html=1;fillColor=#f5f5f5;strokeColor=#994C00;rounded=1;" edge="1" parent="1">
                    <mxGeometry width="50" height="50" relative="1" as="geometry">
                        <mxPoint x="519.9999999999998" y="80" as="sourcePoint"/>
                        <mxPoint x="399.9999999999998" y="80" as="targetPoint"/>
                    </mxGeometry>
                </mxCell>
                <mxCell id="70" value="O" style="text;html=1;align=center;verticalAlign=middle;resizable=0;points=[];autosize=1;strokeColor=none;fillColor=none;" vertex="1" parent="1">
                    <mxGeometry x="490" y="10" width="20" height="20" as="geometry"/>
                </mxCell>
                <mxCell id="71" value="X" style="text;html=1;align=center;verticalAlign=middle;resizable=0;points=[];autosize=1;strokeColor=none;fillColor=none;" vertex="1" parent="1">
                    <mxGeometry x="490" y="90" width="20" height="20" as="geometry"/>
                </mxCell>
                <mxCell id="73" value="X" style="text;html=1;align=center;verticalAlign=middle;resizable=0;points=[];autosize=1;strokeColor=none;fillColor=none;" vertex="1" parent="1">
                    <mxGeometry x="450" y="90" width="20" height="20" as="geometry"/>
                </mxCell>
                <mxCell id="75" value="&lt;u&gt;&lt;b&gt;&lt;font color=&quot;#ff3333&quot;&gt;Board&lt;/font&gt;&lt;/b&gt;&lt;/u&gt;&lt;br&gt;Final_state&lt;br&gt;Mark_sqr&lt;br&gt;empty_sqr&lt;br&gt;is_full&lt;br&gt;getempty_sqrs" style="rounded=0;whiteSpace=wrap;html=1;" vertex="1" parent="1">
                    <mxGeometry x="880" y="40" width="200" height="120" as="geometry"/>
                </mxCell>
                <mxCell id="76" value="&lt;u style=&quot;color: rgb(255 , 51 , 51)&quot;&gt;AI&lt;/u&gt;&lt;br&gt;&lt;font color=&quot;#ffffff&quot;&gt;Evale&lt;br&gt;&lt;/font&gt;Minimax" style="rounded=0;whiteSpace=wrap;html=1;" vertex="1" parent="1">
                    <mxGeometry x="1320" y="40" width="120" height="120" as="geometry"/>
                </mxCell>
                <mxCell id="77" value="&lt;u&gt;&lt;font color=&quot;#ff3333&quot;&gt;Game&lt;br&gt;&lt;/font&gt;reset&lt;br&gt;&lt;font color=&quot;#ffffff&quot;&gt;is Over&lt;br&gt;&lt;/font&gt;Draw_fig&amp;nbsp;&lt;br&gt;next_turn&lt;br&gt;show_line&lt;br&gt;&lt;/u&gt;" style="rounded=0;whiteSpace=wrap;html=1;" vertex="1" parent="1">
                    <mxGeometry x="1110" y="241" width="120" height="100" as="geometry"/>
                </mxCell>
                <mxCell id="78" value="" style="endArrow=classic;html=1;rounded=1;strokeColor=#666666;fillColor=#f5f5f5;entryX=0;entryY=0;entryDx=0;entryDy=0;exitX=0.5;exitY=1;exitDx=0;exitDy=0;" edge="1" parent="1" target="77">
                    <mxGeometry width="50" height="50" relative="1" as="geometry">
                        <mxPoint x="970" y="160" as="sourcePoint"/>
                        <mxPoint x="720" y="230" as="targetPoint"/>
                    </mxGeometry>
                </mxCell>
                <mxCell id="79" value="" style="endArrow=classic;html=1;rounded=1;strokeColor=#666666;fillColor=#f5f5f5;entryX=0.75;entryY=0;entryDx=0;entryDy=0;exitX=0.75;exitY=1;exitDx=0;exitDy=0;" edge="1" parent="1" target="77">
                    <mxGeometry width="50" height="50" relative="1" as="geometry">
                        <mxPoint x="1400" y="160" as="sourcePoint"/>
                        <mxPoint x="1140" y="290" as="targetPoint"/>
                    </mxGeometry>
                </mxCell>
                <mxCell id="219" value="O" style="text;html=1;align=center;verticalAlign=middle;resizable=0;points=[];autosize=1;strokeColor=none;fillColor=none;" vertex="1" parent="1">
                    <mxGeometry x="450" y="10" width="20" height="20" as="geometry"/>
                </mxCell>
                <mxCell id="220" value="X" style="text;html=1;align=center;verticalAlign=middle;resizable=0;points=[];autosize=1;strokeColor=none;fillColor=none;" vertex="1" parent="1">
                    <mxGeometry x="407.5" y="10" width="20" height="20" as="geometry"/>
                </mxCell>
                <mxCell id="221" value="O" style="text;html=1;align=center;verticalAlign=middle;resizable=0;points=[];autosize=1;strokeColor=none;fillColor=none;" vertex="1" parent="1">
                    <mxGeometry x="447.5" y="50" width="20" height="20" as="geometry"/>
                </mxCell>
                <mxCell id="222" value="" style="endArrow=none;html=1;fillColor=#f5f5f5;strokeColor=#994C00;rounded=1;" edge="1" parent="1">
                    <mxGeometry width="50" height="50" relative="1" as="geometry">
                        <mxPoint x="80" y="270" as="sourcePoint"/>
                        <mxPoint x="80" y="160" as="targetPoint"/>
                    </mxGeometry>
                </mxCell>
                <mxCell id="223" value="" style="endArrow=none;html=1;fillColor=#f5f5f5;strokeColor=#994C00;rounded=1;" edge="1" parent="1">
                    <mxGeometry width="50" height="50" relative="1" as="geometry">
                        <mxPoint x="160" y="200" as="sourcePoint"/>
                        <mxPoint x="40" y="200" as="targetPoint"/>
                    </mxGeometry>
                </mxCell>
                <mxCell id="224" value="" style="endArrow=none;html=1;fillColor=#f5f5f5;strokeColor=#994C00;rounded=1;" edge="1" parent="1">
                    <mxGeometry width="50" height="50" relative="1" as="geometry">
                        <mxPoint x="119.99999999999977" y="270" as="sourcePoint"/>
                        <mxPoint x="119.99999999999977" y="160" as="targetPoint"/>
                    </mxGeometry>
                </mxCell>
                <mxCell id="225" value="" style="endArrow=none;html=1;fillColor=#f5f5f5;strokeColor=#994C00;rounded=1;" edge="1" parent="1">
                    <mxGeometry width="50" height="50" relative="1" as="geometry">
                        <mxPoint x="159.99999999999977" y="240" as="sourcePoint"/>
                        <mxPoint x="39.99999999999977" y="240" as="targetPoint"/>
                    </mxGeometry>
                </mxCell>
                <mxCell id="226" value="O" style="text;html=1;align=center;verticalAlign=middle;resizable=0;points=[];autosize=1;strokeColor=none;fillColor=none;" vertex="1" parent="1">
                    <mxGeometry x="130" y="170" width="20" height="20" as="geometry"/>
                </mxCell>
                <mxCell id="227" value="X" style="text;html=1;align=center;verticalAlign=middle;resizable=0;points=[];autosize=1;strokeColor=none;fillColor=none;" vertex="1" parent="1">
                    <mxGeometry x="130" y="250" width="20" height="20" as="geometry"/>
                </mxCell>
                <mxCell id="228" value="X" style="text;html=1;align=center;verticalAlign=middle;resizable=0;points=[];autosize=1;strokeColor=none;fillColor=none;" vertex="1" parent="1">
                    <mxGeometry x="90" y="250" width="20" height="20" as="geometry"/>
                </mxCell>
                <mxCell id="229" value="O" style="text;html=1;align=center;verticalAlign=middle;resizable=0;points=[];autosize=1;strokeColor=none;fillColor=none;" vertex="1" parent="1">
                    <mxGeometry x="90" y="170" width="20" height="20" as="geometry"/>
                </mxCell>
                <mxCell id="230" value="X" style="text;html=1;align=center;verticalAlign=middle;resizable=0;points=[];autosize=1;strokeColor=none;fillColor=none;" vertex="1" parent="1">
                    <mxGeometry x="47.5" y="170" width="20" height="20" as="geometry"/>
                </mxCell>
                <mxCell id="231" value="O" style="text;html=1;align=center;verticalAlign=middle;resizable=0;points=[];autosize=1;strokeColor=none;fillColor=none;" vertex="1" parent="1">
                    <mxGeometry x="87.5" y="210" width="20" height="20" as="geometry"/>
                </mxCell>
                <mxCell id="232" value="" style="endArrow=none;html=1;fillColor=#f5f5f5;strokeColor=#994C00;rounded=1;" edge="1" parent="1">
                    <mxGeometry width="50" height="50" relative="1" as="geometry">
                        <mxPoint x="440" y="270" as="sourcePoint"/>
                        <mxPoint x="440" y="160" as="targetPoint"/>
                    </mxGeometry>
                </mxCell>
                <mxCell id="233" value="" style="endArrow=none;html=1;fillColor=#f5f5f5;strokeColor=#994C00;rounded=1;" edge="1" parent="1">
                    <mxGeometry width="50" height="50" relative="1" as="geometry">
                        <mxPoint x="520" y="200" as="sourcePoint"/>
                        <mxPoint x="400" y="200" as="targetPoint"/>
                    </mxGeometry>
                </mxCell>
                <mxCell id="234" value="" style="endArrow=none;html=1;fillColor=#f5f5f5;strokeColor=#994C00;rounded=1;" edge="1" parent="1">
                    <mxGeometry width="50" height="50" relative="1" as="geometry">
                        <mxPoint x="479.9999999999998" y="270" as="sourcePoint"/>
                        <mxPoint x="479.9999999999998" y="160" as="targetPoint"/>
                    </mxGeometry>
                </mxCell>
                <mxCell id="235" value="" style="endArrow=none;html=1;fillColor=#f5f5f5;strokeColor=#994C00;rounded=1;" edge="1" parent="1">
                    <mxGeometry width="50" height="50" relative="1" as="geometry">
                        <mxPoint x="519.9999999999998" y="240" as="sourcePoint"/>
                        <mxPoint x="399.9999999999998" y="240" as="targetPoint"/>
                    </mxGeometry>
                </mxCell>
                <mxCell id="236" value="O" style="text;html=1;align=center;verticalAlign=middle;resizable=0;points=[];autosize=1;strokeColor=none;fillColor=none;" vertex="1" parent="1">
                    <mxGeometry x="490" y="170" width="20" height="20" as="geometry"/>
                </mxCell>
                <mxCell id="237" value="X" style="text;html=1;align=center;verticalAlign=middle;resizable=0;points=[];autosize=1;strokeColor=none;fillColor=none;" vertex="1" parent="1">
                    <mxGeometry x="490" y="250" width="20" height="20" as="geometry"/>
                </mxCell>
                <mxCell id="238" value="X" style="text;html=1;align=center;verticalAlign=middle;resizable=0;points=[];autosize=1;strokeColor=none;fillColor=none;" vertex="1" parent="1">
                    <mxGeometry x="450" y="250" width="20" height="20" as="geometry"/>
                </mxCell>
                <mxCell id="239" value="O" style="text;html=1;align=center;verticalAlign=middle;resizable=0;points=[];autosize=1;strokeColor=none;fillColor=none;" vertex="1" parent="1">
                    <mxGeometry x="450" y="170" width="20" height="20" as="geometry"/>
                </mxCell>
                <mxCell id="240" value="X" style="text;html=1;align=center;verticalAlign=middle;resizable=0;points=[];autosize=1;strokeColor=none;fillColor=none;" vertex="1" parent="1">
                    <mxGeometry x="407.5" y="170" width="20" height="20" as="geometry"/>
                </mxCell>
                <mxCell id="241" value="O" style="text;html=1;align=center;verticalAlign=middle;resizable=0;points=[];autosize=1;strokeColor=none;fillColor=none;" vertex="1" parent="1">
                    <mxGeometry x="447.5" y="210" width="20" height="20" as="geometry"/>
                </mxCell>
                <mxCell id="242" value="" style="endArrow=none;html=1;fillColor=#f5f5f5;strokeColor=#994C00;rounded=1;" edge="1" parent="1">
                    <mxGeometry width="50" height="50" relative="1" as="geometry">
                        <mxPoint x="760" y="270" as="sourcePoint"/>
                        <mxPoint x="760" y="160" as="targetPoint"/>
                    </mxGeometry>
                </mxCell>
                <mxCell id="243" value="" style="endArrow=none;html=1;fillColor=#f5f5f5;strokeColor=#994C00;rounded=1;" edge="1" parent="1">
                    <mxGeometry width="50" height="50" relative="1" as="geometry">
                        <mxPoint x="840" y="200" as="sourcePoint"/>
                        <mxPoint x="720" y="200" as="targetPoint"/>
                    </mxGeometry>
                </mxCell>
                <mxCell id="244" value="" style="endArrow=none;html=1;fillColor=#f5f5f5;strokeColor=#994C00;rounded=1;" edge="1" parent="1">
                    <mxGeometry width="50" height="50" relative="1" as="geometry">
                        <mxPoint x="799.9999999999998" y="270" as="sourcePoint"/>
                        <mxPoint x="799.9999999999998" y="160" as="targetPoint"/>
                    </mxGeometry>
                </mxCell>
                <mxCell id="245" value="" style="endArrow=none;html=1;fillColor=#f5f5f5;strokeColor=#994C00;rounded=1;" edge="1" parent="1">
                    <mxGeometry width="50" height="50" relative="1" as="geometry">
                        <mxPoint x="839.9999999999998" y="240" as="sourcePoint"/>
                        <mxPoint x="719.9999999999998" y="240" as="targetPoint"/>
                    </mxGeometry>
                </mxCell>
                <mxCell id="246" value="O" style="text;html=1;align=center;verticalAlign=middle;resizable=0;points=[];autosize=1;strokeColor=none;fillColor=none;" vertex="1" parent="1">
                    <mxGeometry x="810" y="170" width="20" height="20" as="geometry"/>
                </mxCell>
                <mxCell id="247" value="X" style="text;html=1;align=center;verticalAlign=middle;resizable=0;points=[];autosize=1;strokeColor=none;fillColor=none;" vertex="1" parent="1">
                    <mxGeometry x="810" y="250" width="20" height="20" as="geometry"/>
                </mxCell>
                <mxCell id="248" value="X" style="text;html=1;align=center;verticalAlign=middle;resizable=0;points=[];autosize=1;strokeColor=none;fillColor=none;" vertex="1" parent="1">
                    <mxGeometry x="770" y="250" width="20" height="20" as="geometry"/>
                </mxCell>
                <mxCell id="249" value="O" style="text;html=1;align=center;verticalAlign=middle;resizable=0;points=[];autosize=1;strokeColor=none;fillColor=none;" vertex="1" parent="1">
                    <mxGeometry x="770" y="170" width="20" height="20" as="geometry"/>
                </mxCell>
                <mxCell id="250" value="X" style="text;html=1;align=center;verticalAlign=middle;resizable=0;points=[];autosize=1;strokeColor=none;fillColor=none;" vertex="1" parent="1">
                    <mxGeometry x="727.5" y="170" width="20" height="20" as="geometry"/>
                </mxCell>
                <mxCell id="251" value="O" style="text;html=1;align=center;verticalAlign=middle;resizable=0;points=[];autosize=1;strokeColor=none;fillColor=none;" vertex="1" parent="1">
                    <mxGeometry x="767.5" y="210" width="20" height="20" as="geometry"/>
                </mxCell>
                <mxCell id="252" value="" style="endArrow=none;html=1;fillColor=#f5f5f5;strokeColor=#994C00;rounded=1;" edge="1" parent="1">
                    <mxGeometry width="50" height="50" relative="1" as="geometry">
                        <mxPoint x="50" y="430" as="sourcePoint"/>
                        <mxPoint x="50" y="320" as="targetPoint"/>
                    </mxGeometry>
                </mxCell>
                <mxCell id="253" value="" style="endArrow=none;html=1;fillColor=#f5f5f5;strokeColor=#994C00;rounded=1;" edge="1" parent="1">
                    <mxGeometry width="50" height="50" relative="1" as="geometry">
                        <mxPoint x="130" y="360" as="sourcePoint"/>
                        <mxPoint x="10" y="360" as="targetPoint"/>
                    </mxGeometry>
                </mxCell>
                <mxCell id="254" value="" style="endArrow=none;html=1;fillColor=#f5f5f5;strokeColor=#994C00;rounded=1;" edge="1" parent="1">
                    <mxGeometry width="50" height="50" relative="1" as="geometry">
                        <mxPoint x="89.99999999999977" y="430" as="sourcePoint"/>
                        <mxPoint x="89.99999999999977" y="320" as="targetPoint"/>
                    </mxGeometry>
                </mxCell>
                <mxCell id="255" value="" style="endArrow=none;html=1;fillColor=#f5f5f5;strokeColor=#994C00;rounded=1;" edge="1" parent="1">
                    <mxGeometry width="50" height="50" relative="1" as="geometry">
                        <mxPoint x="129.99999999999977" y="400" as="sourcePoint"/>
                        <mxPoint x="9.999999999999773" y="400" as="targetPoint"/>
                    </mxGeometry>
                </mxCell>
                <mxCell id="256" value="O" style="text;html=1;align=center;verticalAlign=middle;resizable=0;points=[];autosize=1;strokeColor=none;fillColor=none;" vertex="1" parent="1">
                    <mxGeometry x="100" y="330" width="20" height="20" as="geometry"/>
                </mxCell>
                <mxCell id="257" value="X" style="text;html=1;align=center;verticalAlign=middle;resizable=0;points=[];autosize=1;strokeColor=none;fillColor=none;" vertex="1" parent="1">
                    <mxGeometry x="100" y="410" width="20" height="20" as="geometry"/>
                </mxCell>
                <mxCell id="258" value="X" style="text;html=1;align=center;verticalAlign=middle;resizable=0;points=[];autosize=1;strokeColor=none;fillColor=none;" vertex="1" parent="1">
                    <mxGeometry x="60" y="410" width="20" height="20" as="geometry"/>
                </mxCell>
                <mxCell id="259" value="O" style="text;html=1;align=center;verticalAlign=middle;resizable=0;points=[];autosize=1;strokeColor=none;fillColor=none;" vertex="1" parent="1">
                    <mxGeometry x="60" y="330" width="20" height="20" as="geometry"/>
                </mxCell>
                <mxCell id="260" value="X" style="text;html=1;align=center;verticalAlign=middle;resizable=0;points=[];autosize=1;strokeColor=none;fillColor=none;" vertex="1" parent="1">
                    <mxGeometry x="17.5" y="330" width="20" height="20" as="geometry"/>
                </mxCell>
                <mxCell id="261" value="O" style="text;html=1;align=center;verticalAlign=middle;resizable=0;points=[];autosize=1;strokeColor=none;fillColor=none;" vertex="1" parent="1">
                    <mxGeometry x="57.5" y="370" width="20" height="20" as="geometry"/>
                </mxCell>
                <mxCell id="262" value="" style="endArrow=none;html=1;fillColor=#f5f5f5;strokeColor=#994C00;rounded=1;" edge="1" parent="1">
                    <mxGeometry width="50" height="50" relative="1" as="geometry">
                        <mxPoint x="210" y="430" as="sourcePoint"/>
                        <mxPoint x="210" y="320" as="targetPoint"/>
                    </mxGeometry>
                </mxCell>
                <mxCell id="263" value="" style="endArrow=none;html=1;fillColor=#f5f5f5;strokeColor=#994C00;rounded=1;" edge="1" parent="1">
                    <mxGeometry width="50" height="50" relative="1" as="geometry">
                        <mxPoint x="290" y="360" as="sourcePoint"/>
                        <mxPoint x="170" y="360" as="targetPoint"/>
                    </mxGeometry>
                </mxCell>
                <mxCell id="264" value="" style="endArrow=none;html=1;fillColor=#f5f5f5;strokeColor=#994C00;rounded=1;" edge="1" parent="1">
                    <mxGeometry width="50" height="50" relative="1" as="geometry">
                        <mxPoint x="249.99999999999977" y="430" as="sourcePoint"/>
                        <mxPoint x="249.99999999999977" y="320" as="targetPoint"/>
                    </mxGeometry>
                </mxCell>
                <mxCell id="265" value="" style="endArrow=none;html=1;fillColor=#f5f5f5;strokeColor=#994C00;rounded=1;" edge="1" parent="1">
                    <mxGeometry width="50" height="50" relative="1" as="geometry">
                        <mxPoint x="289.9999999999998" y="400" as="sourcePoint"/>
                        <mxPoint x="169.99999999999977" y="400" as="targetPoint"/>
                    </mxGeometry>
                </mxCell>
                <mxCell id="266" value="O" style="text;html=1;align=center;verticalAlign=middle;resizable=0;points=[];autosize=1;strokeColor=none;fillColor=none;" vertex="1" parent="1">
                    <mxGeometry x="260" y="330" width="20" height="20" as="geometry"/>
                </mxCell>
                <mxCell id="267" value="X" style="text;html=1;align=center;verticalAlign=middle;resizable=0;points=[];autosize=1;strokeColor=none;fillColor=none;" vertex="1" parent="1">
                    <mxGeometry x="260" y="410" width="20" height="20" as="geometry"/>
                </mxCell>
                <mxCell id="268" value="X" style="text;html=1;align=center;verticalAlign=middle;resizable=0;points=[];autosize=1;strokeColor=none;fillColor=none;" vertex="1" parent="1">
                    <mxGeometry x="220" y="410" width="20" height="20" as="geometry"/>
                </mxCell>
                <mxCell id="269" value="O" style="text;html=1;align=center;verticalAlign=middle;resizable=0;points=[];autosize=1;strokeColor=none;fillColor=none;" vertex="1" parent="1">
                    <mxGeometry x="220" y="330" width="20" height="20" as="geometry"/>
                </mxCell>
                <mxCell id="270" value="X" style="text;html=1;align=center;verticalAlign=middle;resizable=0;points=[];autosize=1;strokeColor=none;fillColor=none;" vertex="1" parent="1">
                    <mxGeometry x="177.5" y="330" width="20" height="20" as="geometry"/>
                </mxCell>
                <mxCell id="271" value="O" style="text;html=1;align=center;verticalAlign=middle;resizable=0;points=[];autosize=1;strokeColor=none;fillColor=none;" vertex="1" parent="1">
                    <mxGeometry x="217.5" y="370" width="20" height="20" as="geometry"/>
                </mxCell>
                <mxCell id="292" value="" style="endArrow=none;html=1;fillColor=#f5f5f5;strokeColor=#994C00;rounded=1;" edge="1" parent="1">
                    <mxGeometry width="50" height="50" relative="1" as="geometry">
                        <mxPoint x="560" y="440" as="sourcePoint"/>
                        <mxPoint x="560" y="330" as="targetPoint"/>
                    </mxGeometry>
                </mxCell>
                <mxCell id="293" value="" style="endArrow=none;html=1;fillColor=#f5f5f5;strokeColor=#994C00;rounded=1;" edge="1" parent="1">
                    <mxGeometry width="50" height="50" relative="1" as="geometry">
                        <mxPoint x="640" y="370" as="sourcePoint"/>
                        <mxPoint x="520" y="370" as="targetPoint"/>
                    </mxGeometry>
                </mxCell>
                <mxCell id="294" value="" style="endArrow=none;html=1;fillColor=#f5f5f5;strokeColor=#994C00;rounded=1;" edge="1" parent="1">
                    <mxGeometry width="50" height="50" relative="1" as="geometry">
                        <mxPoint x="599.9999999999998" y="440" as="sourcePoint"/>
                        <mxPoint x="599.9999999999998" y="330" as="targetPoint"/>
                    </mxGeometry>
                </mxCell>
                <mxCell id="295" value="" style="endArrow=none;html=1;fillColor=#f5f5f5;strokeColor=#994C00;rounded=1;" edge="1" parent="1">
                    <mxGeometry width="50" height="50" relative="1" as="geometry">
                        <mxPoint x="639.9999999999998" y="410" as="sourcePoint"/>
                        <mxPoint x="519.9999999999998" y="410" as="targetPoint"/>
                    </mxGeometry>
                </mxCell>
                <mxCell id="296" value="O" style="text;html=1;align=center;verticalAlign=middle;resizable=0;points=[];autosize=1;strokeColor=none;fillColor=none;" vertex="1" parent="1">
                    <mxGeometry x="610" y="340" width="20" height="20" as="geometry"/>
                </mxCell>
                <mxCell id="297" value="X" style="text;html=1;align=center;verticalAlign=middle;resizable=0;points=[];autosize=1;strokeColor=none;fillColor=none;" vertex="1" parent="1">
                    <mxGeometry x="610" y="420" width="20" height="20" as="geometry"/>
                </mxCell>
                <mxCell id="298" value="X" style="text;html=1;align=center;verticalAlign=middle;resizable=0;points=[];autosize=1;strokeColor=none;fillColor=none;" vertex="1" parent="1">
                    <mxGeometry x="570" y="420" width="20" height="20" as="geometry"/>
                </mxCell>
                <mxCell id="299" value="O" style="text;html=1;align=center;verticalAlign=middle;resizable=0;points=[];autosize=1;strokeColor=none;fillColor=none;" vertex="1" parent="1">
                    <mxGeometry x="570" y="340" width="20" height="20" as="geometry"/>
                </mxCell>
                <mxCell id="300" value="X" style="text;html=1;align=center;verticalAlign=middle;resizable=0;points=[];autosize=1;strokeColor=none;fillColor=none;" vertex="1" parent="1">
                    <mxGeometry x="527.5" y="340" width="20" height="20" as="geometry"/>
                </mxCell>
                <mxCell id="301" value="O" style="text;html=1;align=center;verticalAlign=middle;resizable=0;points=[];autosize=1;strokeColor=none;fillColor=none;" vertex="1" parent="1">
                    <mxGeometry x="567.5" y="380" width="20" height="20" as="geometry"/>
                </mxCell>
                <mxCell id="302" value="" style="endArrow=none;html=1;fillColor=#f5f5f5;strokeColor=#994C00;rounded=1;" edge="1" parent="1">
                    <mxGeometry width="50" height="50" relative="1" as="geometry">
                        <mxPoint x="767.5" y="471" as="sourcePoint"/>
                        <mxPoint x="767.5" y="361" as="targetPoint"/>
                    </mxGeometry>
                </mxCell>
                <mxCell id="303" value="" style="endArrow=none;html=1;fillColor=#f5f5f5;strokeColor=#994C00;rounded=1;" edge="1" parent="1">
                    <mxGeometry width="50" height="50" relative="1" as="geometry">
                        <mxPoint x="847.5" y="401" as="sourcePoint"/>
                        <mxPoint x="727.5" y="401" as="targetPoint"/>
                    </mxGeometry>
                </mxCell>
                <mxCell id="304" value="" style="endArrow=none;html=1;fillColor=#f5f5f5;strokeColor=#994C00;rounded=1;" edge="1" parent="1">
                    <mxGeometry width="50" height="50" relative="1" as="geometry">
                        <mxPoint x="807.4999999999998" y="471" as="sourcePoint"/>
                        <mxPoint x="807.4999999999998" y="361" as="targetPoint"/>
                    </mxGeometry>
                </mxCell>
                <mxCell id="305" value="" style="endArrow=none;html=1;fillColor=#f5f5f5;strokeColor=#994C00;rounded=1;" edge="1" parent="1">
                    <mxGeometry width="50" height="50" relative="1" as="geometry">
                        <mxPoint x="847.4999999999998" y="441" as="sourcePoint"/>
                        <mxPoint x="727.4999999999998" y="441" as="targetPoint"/>
                    </mxGeometry>
                </mxCell>
                <mxCell id="306" value="O" style="text;html=1;align=center;verticalAlign=middle;resizable=0;points=[];autosize=1;strokeColor=none;fillColor=none;" vertex="1" parent="1">
                    <mxGeometry x="817.5" y="371" width="20" height="20" as="geometry"/>
                </mxCell>
                <mxCell id="307" value="X" style="text;html=1;align=center;verticalAlign=middle;resizable=0;points=[];autosize=1;strokeColor=none;fillColor=none;" vertex="1" parent="1">
                    <mxGeometry x="817.5" y="451" width="20" height="20" as="geometry"/>
                </mxCell>
                <mxCell id="308" value="X" style="text;html=1;align=center;verticalAlign=middle;resizable=0;points=[];autosize=1;strokeColor=none;fillColor=none;" vertex="1" parent="1">
                    <mxGeometry x="777.5" y="451" width="20" height="20" as="geometry"/>
                </mxCell>
                <mxCell id="309" value="O" style="text;html=1;align=center;verticalAlign=middle;resizable=0;points=[];autosize=1;strokeColor=none;fillColor=none;" vertex="1" parent="1">
                    <mxGeometry x="777.5" y="371" width="20" height="20" as="geometry"/>
                </mxCell>
                <mxCell id="310" value="X" style="text;html=1;align=center;verticalAlign=middle;resizable=0;points=[];autosize=1;strokeColor=none;fillColor=none;" vertex="1" parent="1">
                    <mxGeometry x="735" y="371" width="20" height="20" as="geometry"/>
                </mxCell>
                <mxCell id="311" value="O" style="text;html=1;align=center;verticalAlign=middle;resizable=0;points=[];autosize=1;strokeColor=none;fillColor=none;" vertex="1" parent="1">
                    <mxGeometry x="775" y="411" width="20" height="20" as="geometry"/>
                </mxCell>
                <mxCell id="312" value="&lt;font color=&quot;#cc0000&quot;&gt;X&lt;/font&gt;" style="text;html=1;align=center;verticalAlign=middle;resizable=0;points=[];autosize=1;strokeColor=none;fillColor=none;" vertex="1" parent="1">
                    <mxGeometry x="47.5" y="210" width="20" height="20" as="geometry"/>
                </mxCell>
                <mxCell id="313" value="&lt;font color=&quot;#cc0000&quot;&gt;X&lt;/font&gt;" style="text;html=1;align=center;verticalAlign=middle;resizable=0;points=[];autosize=1;strokeColor=none;fillColor=none;" vertex="1" parent="1">
                    <mxGeometry x="415" y="250" width="20" height="20" as="geometry"/>
                </mxCell>
                <mxCell id="314" value="&lt;font color=&quot;#cc0000&quot;&gt;X&lt;/font&gt;" style="text;html=1;align=center;verticalAlign=middle;resizable=0;points=[];autosize=1;strokeColor=none;fillColor=none;" vertex="1" parent="1">
                    <mxGeometry x="810" y="210" width="20" height="20" as="geometry"/>
                </mxCell>
                <mxCell id="315" value="X" style="text;html=1;align=center;verticalAlign=middle;resizable=0;points=[];autosize=1;strokeColor=none;fillColor=none;" vertex="1" parent="1">
                    <mxGeometry x="17.5" y="370" width="20" height="20" as="geometry"/>
                </mxCell>
                <mxCell id="316" value="X" style="text;html=1;align=center;verticalAlign=middle;resizable=0;points=[];autosize=1;strokeColor=none;fillColor=none;" vertex="1" parent="1">
                    <mxGeometry x="177.5" y="370" width="20" height="20" as="geometry"/>
                </mxCell>
                <mxCell id="319" value="" style="endArrow=none;html=1;rounded=1;fontColor=#CC0000;strokeColor=#CC0000;" edge="1" parent="1">
                    <mxGeometry width="50" height="50" relative="1" as="geometry">
                        <mxPoint x="460" y="120" as="sourcePoint"/>
                        <mxPoint x="800" y="160" as="targetPoint"/>
                    </mxGeometry>
                </mxCell>
                <mxCell id="320" value="" style="endArrow=none;html=1;rounded=1;fontColor=#CC0000;strokeColor=#CC0000;" edge="1" parent="1">
                    <mxGeometry width="50" height="50" relative="1" as="geometry">
                        <mxPoint x="460" y="120" as="sourcePoint"/>
                        <mxPoint x="460" y="150" as="targetPoint"/>
                    </mxGeometry>
                </mxCell>
                <mxCell id="322" value="" style="endArrow=none;html=1;rounded=1;fontColor=#CC0000;strokeColor=#CC0000;" edge="1" parent="1">
                    <mxGeometry width="50" height="50" relative="1" as="geometry">
                        <mxPoint x="460" y="120" as="sourcePoint"/>
                        <mxPoint x="100" y="160" as="targetPoint"/>
                    </mxGeometry>
                </mxCell>
                <mxCell id="323" value="" style="endArrow=none;html=1;rounded=1;fontColor=#CC0000;strokeColor=#CC0000;" edge="1" parent="1">
                    <mxGeometry width="50" height="50" relative="1" as="geometry">
                        <mxPoint x="110" y="280" as="sourcePoint"/>
                        <mxPoint x="230" y="320" as="targetPoint"/>
                    </mxGeometry>
                </mxCell>
                <mxCell id="324" value="" style="endArrow=none;html=1;rounded=1;fontColor=#CC0000;strokeColor=#CC0000;" edge="1" parent="1">
                    <mxGeometry width="50" height="50" relative="1" as="geometry">
                        <mxPoint x="110" y="280" as="sourcePoint"/>
                        <mxPoint x="70" y="320" as="targetPoint"/>
                    </mxGeometry>
                </mxCell>
                <mxCell id="327" value="" style="endArrow=none;html=1;rounded=1;fontColor=#CC0000;strokeColor=#CC0000;" edge="1" parent="1">
                    <mxGeometry width="50" height="50" relative="1" as="geometry">
                        <mxPoint x="780" y="280" as="sourcePoint"/>
                        <mxPoint x="780" y="340" as="targetPoint"/>
                    </mxGeometry>
                </mxCell>
                <mxCell id="328" value="" style="endArrow=none;html=1;rounded=1;fontColor=#CC0000;strokeColor=#CC0000;entryX=0.917;entryY=0;entryDx=0;entryDy=0;entryPerimeter=0;" edge="1" parent="1" target="373">
                    <mxGeometry width="50" height="50" relative="1" as="geometry">
                        <mxPoint x="780" y="280" as="sourcePoint"/>
                        <mxPoint x="740" y="320" as="targetPoint"/>
                    </mxGeometry>
                </mxCell>
                <mxCell id="331" value="&lt;span style=&quot;color: rgb(204 , 0 , 0)&quot;&gt;O&lt;/span&gt;" style="text;html=1;align=center;verticalAlign=middle;resizable=0;points=[];autosize=1;strokeColor=none;fillColor=none;" vertex="1" parent="1">
                    <mxGeometry x="17.5" y="410" width="20" height="20" as="geometry"/>
                </mxCell>
                <mxCell id="332" value="&lt;span style=&quot;color: rgb(204 , 0 , 0)&quot;&gt;O&lt;/span&gt;" style="text;html=1;align=center;verticalAlign=middle;resizable=0;points=[];autosize=1;strokeColor=none;fillColor=none;" vertex="1" parent="1">
                    <mxGeometry x="260" y="370" width="20" height="20" as="geometry"/>
                </mxCell>
                <mxCell id="336" value="X" style="text;html=1;align=center;verticalAlign=middle;resizable=0;points=[];autosize=1;strokeColor=none;fillColor=none;" vertex="1" parent="1">
                    <mxGeometry x="610" y="380" width="20" height="20" as="geometry"/>
                </mxCell>
                <mxCell id="337" value="X" style="text;html=1;align=center;verticalAlign=middle;resizable=0;points=[];autosize=1;strokeColor=none;fillColor=none;" vertex="1" parent="1">
                    <mxGeometry x="817.5" y="411" width="20" height="20" as="geometry"/>
                </mxCell>
                <mxCell id="338" value="&lt;span style=&quot;color: rgb(204 , 0 , 0)&quot;&gt;O&lt;/span&gt;" style="text;html=1;align=center;verticalAlign=middle;resizable=0;points=[];autosize=1;strokeColor=none;fillColor=none;" vertex="1" parent="1">
                    <mxGeometry x="527.5" y="380" width="20" height="20" as="geometry"/>
                </mxCell>
                <mxCell id="339" value="&lt;span style=&quot;color: rgb(204 , 0 , 0)&quot;&gt;O&lt;/span&gt;" style="text;html=1;align=center;verticalAlign=middle;resizable=0;points=[];autosize=1;strokeColor=none;fillColor=none;" vertex="1" parent="1">
                    <mxGeometry x="735" y="446" width="20" height="20" as="geometry"/>
                </mxCell>
                <mxCell id="350" value="" style="endArrow=none;html=1;fillColor=#f5f5f5;strokeColor=#994C00;rounded=1;" edge="1" parent="1">
                    <mxGeometry width="50" height="50" relative="1" as="geometry">
                        <mxPoint x="207.5" y="570" as="sourcePoint"/>
                        <mxPoint x="207.5" y="460" as="targetPoint"/>
                    </mxGeometry>
                </mxCell>
                <mxCell id="351" value="" style="endArrow=none;html=1;fillColor=#f5f5f5;strokeColor=#994C00;rounded=1;" edge="1" parent="1">
                    <mxGeometry width="50" height="50" relative="1" as="geometry">
                        <mxPoint x="287.5" y="500" as="sourcePoint"/>
                        <mxPoint x="167.5" y="500" as="targetPoint"/>
                    </mxGeometry>
                </mxCell>
                <mxCell id="352" value="" style="endArrow=none;html=1;fillColor=#f5f5f5;strokeColor=#994C00;rounded=1;" edge="1" parent="1">
                    <mxGeometry width="50" height="50" relative="1" as="geometry">
                        <mxPoint x="247.49999999999977" y="570" as="sourcePoint"/>
                        <mxPoint x="247.49999999999977" y="460" as="targetPoint"/>
                    </mxGeometry>
                </mxCell>
                <mxCell id="353" value="" style="endArrow=none;html=1;fillColor=#f5f5f5;strokeColor=#994C00;rounded=1;" edge="1" parent="1">
                    <mxGeometry width="50" height="50" relative="1" as="geometry">
                        <mxPoint x="287.4999999999998" y="540" as="sourcePoint"/>
                        <mxPoint x="167.49999999999977" y="540" as="targetPoint"/>
                    </mxGeometry>
                </mxCell>
                <mxCell id="354" value="O" style="text;html=1;align=center;verticalAlign=middle;resizable=0;points=[];autosize=1;strokeColor=none;fillColor=none;" vertex="1" parent="1">
                    <mxGeometry x="257.5" y="470" width="20" height="20" as="geometry"/>
                </mxCell>
                <mxCell id="355" value="X" style="text;html=1;align=center;verticalAlign=middle;resizable=0;points=[];autosize=1;strokeColor=none;fillColor=none;" vertex="1" parent="1">
                    <mxGeometry x="257.5" y="550" width="20" height="20" as="geometry"/>
                </mxCell>
                <mxCell id="356" value="X" style="text;html=1;align=center;verticalAlign=middle;resizable=0;points=[];autosize=1;strokeColor=none;fillColor=none;" vertex="1" parent="1">
                    <mxGeometry x="217.5" y="550" width="20" height="20" as="geometry"/>
                </mxCell>
                <mxCell id="357" value="O" style="text;html=1;align=center;verticalAlign=middle;resizable=0;points=[];autosize=1;strokeColor=none;fillColor=none;" vertex="1" parent="1">
                    <mxGeometry x="217.5" y="470" width="20" height="20" as="geometry"/>
                </mxCell>
                <mxCell id="358" value="X" style="text;html=1;align=center;verticalAlign=middle;resizable=0;points=[];autosize=1;strokeColor=none;fillColor=none;" vertex="1" parent="1">
                    <mxGeometry x="175" y="470" width="20" height="20" as="geometry"/>
                </mxCell>
                <mxCell id="359" value="O" style="text;html=1;align=center;verticalAlign=middle;resizable=0;points=[];autosize=1;strokeColor=none;fillColor=none;" vertex="1" parent="1">
                    <mxGeometry x="215" y="510" width="20" height="20" as="geometry"/>
                </mxCell>
                <mxCell id="360" value="X" style="text;html=1;align=center;verticalAlign=middle;resizable=0;points=[];autosize=1;strokeColor=none;fillColor=none;" vertex="1" parent="1">
                    <mxGeometry x="175" y="510" width="20" height="20" as="geometry"/>
                </mxCell>
                <mxCell id="362" value="O" style="text;html=1;align=center;verticalAlign=middle;resizable=0;points=[];autosize=1;strokeColor=none;fillColor=none;" vertex="1" parent="1">
                    <mxGeometry x="257.5" y="510" width="20" height="20" as="geometry"/>
                </mxCell>
                <mxCell id="364" value="&lt;font color=&quot;#cc0000&quot;&gt;X&lt;/font&gt;" style="text;html=1;align=center;verticalAlign=middle;resizable=0;points=[];autosize=1;strokeColor=none;fillColor=none;" vertex="1" parent="1">
                    <mxGeometry x="175" y="550" width="20" height="20" as="geometry"/>
                </mxCell>
                <mxCell id="366" value="&lt;font color=&quot;#ffffff&quot;&gt;+1&lt;/font&gt;" style="text;html=1;align=center;verticalAlign=middle;resizable=0;points=[];autosize=1;strokeColor=none;fillColor=none;fontColor=#CC0000;" vertex="1" parent="1">
                    <mxGeometry x="205" y="440" width="30" height="20" as="geometry"/>
                </mxCell>
                <mxCell id="367" value="&lt;font color=&quot;#ffffff&quot;&gt;+1&lt;/font&gt;" style="text;html=1;align=center;verticalAlign=middle;resizable=0;points=[];autosize=1;strokeColor=none;fillColor=none;fontColor=#CC0000;" vertex="1" parent="1">
                    <mxGeometry x="220" y="300" width="30" height="20" as="geometry"/>
                </mxCell>
                <mxCell id="368" value="&lt;font color=&quot;#ffffff&quot;&gt;-1&lt;/font&gt;" style="text;html=1;align=center;verticalAlign=middle;resizable=0;points=[];autosize=1;strokeColor=none;fillColor=none;fontColor=#CC0000;" vertex="1" parent="1">
                    <mxGeometry x="30" y="300" width="30" height="20" as="geometry"/>
                </mxCell>
                <mxCell id="369" value="&lt;font color=&quot;#ffffff&quot;&gt;-1&lt;/font&gt;" style="text;html=1;align=center;verticalAlign=middle;resizable=0;points=[];autosize=1;strokeColor=none;fillColor=none;fontColor=#CC0000;" vertex="1" parent="1">
                    <mxGeometry x="85" y="130" width="30" height="20" as="geometry"/>
                </mxCell>
                <mxCell id="372" value="&lt;font color=&quot;#ffffff&quot;&gt;-1&lt;/font&gt;" style="text;html=1;align=center;verticalAlign=middle;resizable=0;points=[];autosize=1;strokeColor=none;fillColor=none;fontColor=#CC0000;" vertex="1" parent="1">
                    <mxGeometry x="765" y="341" width="30" height="20" as="geometry"/>
                </mxCell>
                <mxCell id="373" value="&lt;font color=&quot;#ffffff&quot;&gt;+1&lt;/font&gt;" style="text;html=1;align=center;verticalAlign=middle;resizable=0;points=[];autosize=1;strokeColor=none;fillColor=none;fontColor=#CC0000;" vertex="1" parent="1">
                    <mxGeometry x="557.5" y="310" width="30" height="20" as="geometry"/>
                </mxCell>
                <mxCell id="374" value="&lt;font color=&quot;#ffffff&quot;&gt;-1&lt;/font&gt;" style="text;html=1;align=center;verticalAlign=middle;resizable=0;points=[];autosize=1;strokeColor=none;fillColor=none;fontColor=#CC0000;" vertex="1" parent="1">
                    <mxGeometry x="755" y="130" width="30" height="20" as="geometry"/>
                </mxCell>
                <mxCell id="375" value="&lt;font color=&quot;#ffffff&quot;&gt;+1&lt;/font&gt;" style="text;html=1;align=center;verticalAlign=middle;resizable=0;points=[];autosize=1;strokeColor=none;fillColor=none;fontColor=#CC0000;" vertex="1" parent="1">
                    <mxGeometry x="445" y="150" width="30" height="20" as="geometry"/>
                </mxCell>
                <mxCell id="376" value="" style="endArrow=none;html=1;fillColor=#f5f5f5;strokeColor=#994C00;rounded=1;" edge="1" parent="1">
                    <mxGeometry width="50" height="50" relative="1" as="geometry">
                        <mxPoint x="560" y="570" as="sourcePoint"/>
                        <mxPoint x="560" y="460" as="targetPoint"/>
                    </mxGeometry>
                </mxCell>
                <mxCell id="377" value="" style="endArrow=none;html=1;fillColor=#f5f5f5;strokeColor=#994C00;rounded=1;" edge="1" parent="1">
                    <mxGeometry width="50" height="50" relative="1" as="geometry">
                        <mxPoint x="640" y="500" as="sourcePoint"/>
                        <mxPoint x="520" y="500" as="targetPoint"/>
                    </mxGeometry>
                </mxCell>
                <mxCell id="378" value="" style="endArrow=none;html=1;fillColor=#f5f5f5;strokeColor=#994C00;rounded=1;" edge="1" parent="1">
                    <mxGeometry width="50" height="50" relative="1" as="geometry">
                        <mxPoint x="599.9999999999998" y="570" as="sourcePoint"/>
                        <mxPoint x="599.9999999999998" y="460" as="targetPoint"/>
                    </mxGeometry>
                </mxCell>
                <mxCell id="379" value="" style="endArrow=none;html=1;fillColor=#f5f5f5;strokeColor=#994C00;rounded=1;" edge="1" parent="1">
                    <mxGeometry width="50" height="50" relative="1" as="geometry">
                        <mxPoint x="639.9999999999998" y="540" as="sourcePoint"/>
                        <mxPoint x="519.9999999999998" y="540" as="targetPoint"/>
                    </mxGeometry>
                </mxCell>
                <mxCell id="380" value="O" style="text;html=1;align=center;verticalAlign=middle;resizable=0;points=[];autosize=1;strokeColor=none;fillColor=none;" vertex="1" parent="1">
                    <mxGeometry x="610" y="470" width="20" height="20" as="geometry"/>
                </mxCell>
                <mxCell id="381" value="X" style="text;html=1;align=center;verticalAlign=middle;resizable=0;points=[];autosize=1;strokeColor=none;fillColor=none;" vertex="1" parent="1">
                    <mxGeometry x="610" y="550" width="20" height="20" as="geometry"/>
                </mxCell>
                <mxCell id="382" value="X" style="text;html=1;align=center;verticalAlign=middle;resizable=0;points=[];autosize=1;strokeColor=none;fillColor=none;" vertex="1" parent="1">
                    <mxGeometry x="570" y="550" width="20" height="20" as="geometry"/>
                </mxCell>
                <mxCell id="383" value="O" style="text;html=1;align=center;verticalAlign=middle;resizable=0;points=[];autosize=1;strokeColor=none;fillColor=none;" vertex="1" parent="1">
                    <mxGeometry x="570" y="470" width="20" height="20" as="geometry"/>
                </mxCell>
                <mxCell id="384" value="X" style="text;html=1;align=center;verticalAlign=middle;resizable=0;points=[];autosize=1;strokeColor=none;fillColor=none;" vertex="1" parent="1">
                    <mxGeometry x="527.5" y="470" width="20" height="20" as="geometry"/>
                </mxCell>
                <mxCell id="385" value="O" style="text;html=1;align=center;verticalAlign=middle;resizable=0;points=[];autosize=1;strokeColor=none;fillColor=none;" vertex="1" parent="1">
                    <mxGeometry x="567.5" y="510" width="20" height="20" as="geometry"/>
                </mxCell>
                <mxCell id="386" value="X" style="text;html=1;align=center;verticalAlign=middle;resizable=0;points=[];autosize=1;strokeColor=none;fillColor=none;" vertex="1" parent="1">
                    <mxGeometry x="610" y="510" width="20" height="20" as="geometry"/>
                </mxCell>
                <mxCell id="388" value="O" style="text;html=1;align=center;verticalAlign=middle;resizable=0;points=[];autosize=1;strokeColor=none;fillColor=none;" vertex="1" parent="1">
                    <mxGeometry x="527.5" y="510" width="20" height="20" as="geometry"/>
                </mxCell>
                <mxCell id="389" value="&lt;font color=&quot;#cc0000&quot;&gt;X&lt;/font&gt;" style="text;html=1;align=center;verticalAlign=middle;resizable=0;points=[];autosize=1;strokeColor=none;fillColor=none;" vertex="1" parent="1">
                    <mxGeometry x="527.5" y="550" width="20" height="20" as="geometry"/>
                </mxCell>
                <mxCell id="390" value="&lt;font color=&quot;#ffffff&quot;&gt;+1&lt;/font&gt;" style="text;html=1;align=center;verticalAlign=middle;resizable=0;points=[];autosize=1;strokeColor=none;fillColor=none;fontColor=#CC0000;" vertex="1" parent="1">
                    <mxGeometry x="565" y="450" width="30" height="20" as="geometry"/>
                </mxCell>
                <mxCell id="403" value="" style="endArrow=none;html=1;rounded=1;fontColor=#FFFFFF;strokeColor=#FFFF00;entryX=1.025;entryY=1.25;entryDx=0;entryDy=0;entryPerimeter=0;" edge="1" parent="1" target="355">
                    <mxGeometry width="50" height="50" relative="1" as="geometry">
                        <mxPoint x="160" y="575" as="sourcePoint"/>
                        <mxPoint x="210" y="520" as="targetPoint"/>
                    </mxGeometry>
                </mxCell>
            </root>
        </mxGraphModel>
    </diagram>
</mxfile>